<svg width="502" height="200" viewBox="0 0 502 200" version="1.1" xmlns="http://www.w3.org/2000/svg" xmlns:xlink="http://www.w3.org/1999/xlink" xml:space="preserve" xmlns:serif="http://www.serif.com/" style="fill-rule:evenodd;clip-rule:evenodd;stroke-linejoin:round;stroke-miterlimit:2;">
    <g transform="matrix(2.02433,0,0,2.02433,0.712565,118.929)">
        <path d="M0,38.104L0,32.008C2.579,33.59 4.689,34.411 6.684,34.411C9.145,34.411 11.021,33.004 11.021,30.19L11.021,30.073C11.021,27.729 10.26,26.028 6.508,21.514C1.465,15.476 -0.352,12.896 -0.352,8.265L-0.352,8.147C-0.352,2.109 3.752,-1.877 9.027,-1.877C11.783,-1.877 13.542,-1.35 15.359,-0.412L15.359,5.686C13.132,4.337 11.549,3.692 9.673,3.692C7.328,3.692 5.451,5.275 5.451,7.854L5.451,7.972C5.451,10.258 6.214,11.489 9.966,15.944C15.418,22.393 16.824,25.149 16.824,29.78L16.824,29.897C16.824,35.936 12.545,39.981 7.211,39.981C4.514,39.981 2.169,39.219 0,38.104" style="fill:rgb(6,101,158);fill-rule:nonzero;"/>
    </g>
    <g transform="matrix(2.02433,0,0,2.02433,59.5802,187.996)">
        <path d="M0,-30.133L-5.57,-30.133L-5.57,-35.585L12.256,-35.585L11.256,-30.133L5.744,-30.133L5.744,5.452L0,5.452L0,-30.133Z" style="fill:rgb(6,101,158);fill-rule:nonzero;"/>
    </g>
    <g transform="matrix(2.02433,0,0,2.02433,121.534,144.797)">
        <path d="M0,12.429L-2.99,-4.044L-5.979,12.429L0,12.429ZM-5.979,-14.363L0.176,-14.363L8.325,26.792L2.521,26.792L0.88,17.646L-6.859,17.646L-8.501,26.792L-14.128,26.792L-5.979,-14.363Z" style="fill:rgb(6,101,158);fill-rule:nonzero;"/>
    </g>
    <g transform="matrix(2.02433,0,0,2.02433,160.228,187.996)">
        <path d="M0,-30.133L-5.569,-30.133L-6.569,-35.585L11.256,-35.585L11.256,-30.133L5.745,-30.133L5.745,5.452L0,5.452L0,-30.133Z" style="fill:rgb(6,101,158);fill-rule:nonzero;"/>
    </g>
    <g transform="matrix(2.02433,0,0,2.02433,214.584,126.761)">
        <path d="M0,30.366C4.162,30.366 6.918,28.139 6.918,24.153L6.918,23.919C6.918,19.815 4.279,17.528 0.117,17.528L-0.586,17.528L-0.586,30.366L0,30.366ZM0,12.487C4.045,12.487 6.508,10.199 6.508,6.096L6.508,5.979C6.508,1.992 3.986,-0.001 0.234,-0.001L-0.586,-0.001L-0.586,12.487L0,12.487ZM-6.39,-5.336L-0.469,-5.336C6.332,-5.336 12.193,-2.111 12.193,5.041L12.193,5.276C12.193,10.786 9.028,13.424 5.805,14.773C9.674,16.121 12.722,18.817 12.722,24.153L12.722,24.563C12.722,31.657 7.27,35.702 -0.586,35.702L-6.39,35.702L-6.39,-5.336Z" style="fill:rgb(6,101,158);fill-rule:nonzero;"/>
    </g>
    <g transform="matrix(2.02433,0,0,2.02433,273.334,156.785)">
        <path d="M0,0.703C3.869,0.703 6.508,-1.642 6.508,-6.918L6.508,-7.27C6.508,-12.898 3.693,-14.774 -0.176,-14.774L-0.996,-14.774L-0.996,0.703L0,0.703ZM-6.801,-20.167L-0.117,-20.167C7.152,-20.167 12.312,-16.122 12.312,-7.387L12.312,-6.977C12.312,-1.525 10.024,2.052 6.801,3.986L13.015,20.87L6.801,20.87L1.289,5.863C1.055,5.863 0.762,5.921 0.527,5.921L-0.996,5.921L-0.996,20.87L-6.801,20.87L-6.801,-20.167Z" style="fill:rgb(6,101,158);fill-rule:nonzero;"/>
    </g>
    <g transform="matrix(2.02433,0,0,2.02433,-369.676,-688.373)">
        <rect x="339.978" y="397.332" width="5.746" height="41.038" style="fill:rgb(6,101,158);"/>
    </g>
    <g transform="matrix(2.02433,0,0,2.02433,366.025,126.643)">
        <path d="M0,30.483C4.221,30.483 7.563,26.555 7.563,15.886L7.563,14.597C7.563,3.927 4.162,-0.001 -0.059,-0.001L-0.879,-0.001L-0.879,30.483L0,30.483ZM-6.684,-5.277L-0.527,-5.277C8.148,-5.277 13.426,1.406 13.426,14.597L13.426,15.886C13.426,29.077 8.148,35.76 -0.527,35.76L-6.684,35.76L-6.684,-5.277Z" style="fill:rgb(6,101,158);fill-rule:nonzero;"/>
    </g>
    <g transform="matrix(2.02433,0,0,2.02433,409.35,156.311)">
        <path d="M0,1.23L0,-0.059C0,-13.426 5.686,-20.226 13.307,-20.226C15.477,-20.226 17.176,-19.757 18.643,-19.054L18.643,-12.957C16.883,-14.012 15.301,-14.715 13.482,-14.715C9.086,-14.715 5.861,-10.026 5.861,-0.293L5.861,1.465C5.861,12.544 9.379,16.12 13.072,16.12C13.6,16.12 13.834,16.062 14.422,15.886L14.422,3.692L10.082,3.692L10.082,-1.466L19.697,-1.466L19.697,19.755C17.234,20.87 15.359,21.456 12.838,21.456C5.803,21.456 0,15.3 0,1.23" style="fill:rgb(6,101,158);fill-rule:nonzero;"/>
    </g>
    <g transform="matrix(2.02433,0,0,2.02433,470.468,199.034)">
        <path d="M0,-41.038L15.184,-41.038L15.184,-35.586L5.805,-35.586L5.805,-23.392L14.188,-23.392L14.188,-17.94L5.805,-17.94L5.805,-5.454L15.361,-5.454L15.361,0L0,0L0,-41.038Z" style="fill:rgb(6,101,158);fill-rule:nonzero;"/>
    </g>
    <g transform="matrix(2.02433,0,0,2.02433,180.693,51.3513)">
        <path d="M0,-11.233C-2.491,-15.193 -4.676,-19.864 -6.364,-25.367L-6.487,-25.367C-14.51,0.808 -31.063,11.553 -37.641,13.429C-38.618,13.708 -39.485,13.938 -40.264,14.134L-36.393,13.429C-31.559,12.351 -10.666,7.246 0,-11.233" style="fill:rgb(61,133,198);fill-rule:nonzero;"/>
    </g>
    <g transform="matrix(2.02433,0,0,2.02433,-369.676,-599.906)">
        <g opacity="0.7">
            <g transform="matrix(1,0,0,1,225.843,336.873)">
                <path d="M0,0.006L0.113,0.006L0.146,0L0,0.006Z" style="fill:rgb(6,101,158);fill-rule:nonzero;"/>
            </g>
        </g>
    </g>
    <g transform="matrix(2.02433,0,0,2.02433,336.731,42.4416)">
        <path d="M0,-6.902C-2.701,-11.034 -5.02,-15.707 -6.633,-20.965L-6.756,-20.965C-15.07,6.144 -32.011,13.104 -41.138,13.963C-39.823,14.048 -38.622,14.063 -37.569,14.063C-30.147,14.063 -10.656,13.264 0,-6.902" style="fill:rgb(61,133,198);fill-rule:nonzero;"/>
    </g>
    <g transform="matrix(1.65484,-1.16595,-1.16595,-1.65484,404.877,54.0679)">
        <path d="M-11.817,-4.725C-14.97,1.584 -18.362,14.729 -11.714,35.037L-11.817,35.109C-14.686,32.886 -17.496,31.122 -20.236,29.726C-20.767,14.607 -15.364,1.611 -11.817,-4.725" style="fill:rgb(146,185,222);fill-rule:nonzero;"/>
    </g>
    <g transform="matrix(2.02433,0,0,2.02433,249.464,9.74534)">
        <path d="M0,30.215C0.604,30.215 1.266,30.181 1.971,30.114C-7.232,29.522 -21.963,25.552 -29.799,0L-29.922,0C-30.976,3.437 -32.36,6.527 -33.972,9.32C-23.244,26.375 -6.836,30.215 0,30.215" style="fill:rgb(146,185,222);fill-rule:nonzero;"/>
    </g>
    <g transform="matrix(2.02433,0,0,2.02433,399.082,31.4881)">
        <path d="M0,23.486C-1.424,23.025 -2.33,22.762 -4.076,21.822C-10.625,18.686 -22.527,11.174 -30.801,-1.491C-41.457,18.675 -60.948,19.474 -68.37,19.474C-69.423,19.474 -70.624,19.459 -71.938,19.374C-72.644,19.44 -73.306,19.474 -73.91,19.474C-80.746,19.474 -97.154,15.634 -107.882,-1.421C-118.548,17.058 -139.441,22.164 -144.275,23.241L-148.146,23.946C-151.94,24.9 -153.478,24.959 -153.478,24.959L-153.769,24.971L-153.802,24.977L4.232,24.977L7.283,24.959C7.283,24.959 2.227,24.207 0,23.486" style="fill:rgb(6,101,158);fill-rule:nonzero;"/>
    </g>
</svg>
